<?xml version="1.0" encoding="utf-8"?>
<!-- Generator: Adobe Illustrator 23.0.1, SVG Export Plug-In . SVG Version: 6.00 Build 0)  -->
<svg version="1.1" xmlns="http://www.w3.org/2000/svg" xmlns:xlink="http://www.w3.org/1999/xlink" x="0px" y="0px"
	 viewBox="0 0 750 420" style="enable-background:new 0 0 750 420;" xml:space="preserve">
<style type="text/css">
	.st0{fill:#F3F4FF;}
	.st1{fill:#33475B;}
	.st2{fill:#263238;}
	.st3{fill:#FFBE9D;}
	.st4{fill:#EB996E;}
	.st5{fill:#6A78D1;}
	.st6{fill:#455A64;}
	.st7{fill:#253342;}
	.st8{fill:#F5F5F5;}
	.st9{fill:#FFFFFF;}
	.st10{fill:#F5F8FA;}
	.st11{fill:#CBD6E2;}
	.st12{fill:#EAF0F6;}
	.st13{fill:#DFE3EB;}
	.st14{fill:#425B76;}
	.st15{fill:#7C98B6;}
	.st16{fill:#E0E0E0;}
</style>
<g id="BG">
	<rect x="-0.01" y="0" class="st0" width="750.01" height="420.01"/>
</g>
<g id="Layer_1">
	<g id="freepik--Chair--inject-7">
		<path class="st1" d="M518.89,257.44c1.02-6.28,6.41-10.92,12.78-11c27.58-0.37,97.82-1,101.59,1.99c4.7,3.73,7.19,5.64,6.78,11.56
			c-0.34,5.43-6.26,99.26-6.26,99.26H502.31L518.89,257.44z"/>
		<path class="st2" d="M618.77,359.3c-0.02-0.09-0.03-0.19-0.04-0.28c0-0.2,0-0.47-0.06-0.8c-0.06-0.73-0.14-1.79-0.23-3.12
			c-0.1-1.33-0.21-3.03-0.27-4.96c-0.06-1.93-0.19-4.14-0.19-6.57c0-1.22,0-2.5-0.04-3.83s0-2.72,0.05-4.14
			c0-2.87,0.17-5.93,0.3-9.14c0.37-6.44,0.97-13.5,1.96-20.87c0.98-7.37,2.32-14.38,3.69-20.64c0.73-3.14,1.4-6.13,2.15-8.9
			c0.37-1.38,0.69-2.72,1.06-3.99c0.37-1.27,0.73-2.5,1.06-3.67c0.65-2.35,1.37-4.43,1.94-6.29s1.13-3.42,1.6-4.7
			c0.47-1.29,0.8-2.25,1.05-2.95l0.29-0.8c0.06-0.17,0.1-0.26,0.1-0.26c-0.01,0.09-0.03,0.18-0.06,0.27l-0.25,0.8
			c-0.23,0.71-0.56,1.71-0.98,2.99s-0.97,2.87-1.52,4.72c-0.55,1.85-1.25,3.95-1.88,6.29c-0.34,1.17-0.68,2.4-1.04,3.68
			c-0.36,1.29-0.68,2.63-1.04,3.99c-0.73,2.76-1.39,5.76-2.11,8.89c-1.35,6.29-2.63,13.26-3.65,20.62s-1.6,14.38-1.99,20.83
			c-0.14,3.19-0.32,6.27-0.34,9.14c0,1.43-0.07,2.81-0.07,4.14s0,2.6,0,3.82c0,2.44,0.09,4.64,0.14,6.57
			c0.05,1.93,0.12,3.59,0.19,4.95s0.12,2.4,0.15,3.14c0,0.34,0,0.61,0,0.8C618.76,359.1,618.77,359.2,618.77,359.3z"/>
		<path class="st2" d="M544.86,293.67c0,0,0.06,0,0.2-0.08c0.2-0.03,0.41-0.03,0.61,0c0.77,0.09,1.47,0.5,1.92,1.13
			c0.67,0.97,0.75,2.23,0.19,3.27c-0.3,0.61-0.73,1.14-1.28,1.54c-0.6,0.42-1.31,0.67-2.04,0.71c-0.74,0.06-1.48-0.14-2.1-0.55
			c-0.58-0.4-0.97-1.02-1.09-1.71c-0.2-1.15,0.18-2.33,1.01-3.15c1.48-1.26,2.78-1.3,2.76-1.18c-0.02,0.12-0.07,0-0.2,0
			c-0.19,0.05-0.38,0.11-0.56,0.19c-0.66,0.27-1.27,0.66-1.79,1.16c-0.72,0.77-1.03,1.83-0.84,2.87c0.11,0.59,0.45,1.11,0.94,1.45
			c0.54,0.36,1.19,0.53,1.84,0.47c0.66-0.04,1.29-0.26,1.83-0.63c0.5-0.35,0.9-0.82,1.17-1.37c0.52-0.92,0.48-2.05-0.09-2.94
			c-0.4-0.59-1.01-1-1.7-1.14C545.39,293.68,545.12,293.67,544.86,293.67z"/>
		<path class="st2" d="M565.47,281.75c0,0.09-1.36-0.16-3.53,0.04c-5.77,0.51-10.82,4.06-13.26,9.32c-0.93,1.97-1.16,3.32-1.25,3.31
			c0.01-0.32,0.06-0.64,0.15-0.95c0.19-0.85,0.45-1.68,0.8-2.48c2.36-5.46,7.59-9.12,13.52-9.46c0.87-0.06,1.75-0.03,2.61,0.07
			C564.84,281.6,565.16,281.66,565.47,281.75z"/>
		<path class="st2" d="M527.34,306.16c0.07-0.24,0.18-0.47,0.31-0.68c0.33-0.59,0.72-1.15,1.16-1.66c2.95-3.54,7.63-5.13,12.12-4.14
			c0.66,0.14,1.31,0.35,1.93,0.61c0.23,0.09,0.46,0.2,0.66,0.34c0,0.08-0.99-0.38-2.65-0.67c-4.38-0.8-8.87,0.73-11.85,4.04
			C527.9,305.26,527.42,306.2,527.34,306.16z"/>
		<path class="st2" d="M552.78,309.43c-0.5-0.25-0.96-0.58-1.35-0.97c-1-0.9-1.88-1.94-2.61-3.07c-0.73-1.13-1.3-2.36-1.7-3.65
			c-0.2-0.52-0.31-1.08-0.33-1.64c0.64,1.76,1.44,3.46,2.4,5.06C550.25,306.69,551.46,308.12,552.78,309.43z"/>
		<path class="st2" d="M589.25,294.78c0,0,0.06-0.04,0.2-0.08c0.2-0.03,0.41-0.03,0.61,0c0.77,0.09,1.47,0.5,1.92,1.13
			c0.66,0.97,0.74,2.23,0.2,3.27c-0.3,0.61-0.74,1.14-1.29,1.54c-0.6,0.42-1.31,0.67-2.04,0.71c-0.74,0.06-1.48-0.14-2.1-0.55
			c-0.57-0.4-0.96-1.02-1.09-1.71c-0.22-1.17,0.15-2.37,1-3.2c1.48-1.25,2.78-1.3,2.76-1.18c-0.02,0.12-0.07,0-0.2,0.04
			c-0.19,0.05-0.38,0.11-0.56,0.19c-0.66,0.27-1.27,0.66-1.79,1.16c-0.7,0.78-1,1.84-0.8,2.87c0.11,0.59,0.45,1.11,0.94,1.45
			c0.54,0.36,1.19,0.53,1.84,0.47c0.66-0.04,1.29-0.26,1.83-0.63c0.5-0.35,0.9-0.82,1.17-1.37c0.52-0.92,0.48-2.05-0.09-2.94
			c-0.4-0.59-1.01-1-1.7-1.14C589.8,294.78,589.52,294.77,589.25,294.78z"/>
		<path class="st2" d="M609.83,282.86c0,0.09-1.36-0.16-3.53,0.04c-5.76,0.51-10.8,4.05-13.24,9.29c-0.93,1.97-1.16,3.32-1.25,3.31
			c0.01-0.32,0.06-0.64,0.15-0.95c0.19-0.85,0.45-1.68,0.8-2.48c2.36-5.45,7.58-9.11,13.5-9.46c0.87-0.06,1.75-0.03,2.61,0.07
			C609.2,282.69,609.52,282.75,609.83,282.86z"/>
		<path class="st2" d="M571.73,307.27c0.07-0.24,0.18-0.47,0.31-0.68c0.33-0.59,0.72-1.15,1.16-1.66c2.96-3.53,7.63-5.12,12.12-4.14
			c0.66,0.15,1.31,0.35,1.94,0.61c0.24,0.08,0.46,0.2,0.65,0.35c0,0.07-0.99-0.38-2.65-0.68c-4.38-0.8-8.87,0.73-11.84,4.04
			C572.29,306.37,571.8,307.31,571.73,307.27z"/>
		<path class="st2" d="M597.17,310.54c-0.5-0.25-0.96-0.58-1.35-0.97c-1-0.91-1.88-1.94-2.61-3.07c-0.73-1.13-1.3-2.36-1.7-3.65
			c-0.2-0.51-0.31-1.05-0.33-1.6c0.64,1.76,1.44,3.45,2.4,5.06C594.64,307.82,595.85,309.24,597.17,310.54z"/>
	</g>
	<g id="freepik--Character--inject-7">
		<path class="st3" d="M347.17,351.17c-0.26,0.06-1.39,1.2,0.22,3.01c1.61,1.81,11.28,6.77,13.07,3.81
			c1.78-2.96-2.52-5.02-2.52-5.02L347.17,351.17z"/>
		<path class="st3" d="M357.8,347.98c0,0,9.98-1.1,14.06-0.58c4.42,0.57,9.1-1.66,11.88-4.71c1.74-2.02,2.95-4.45,3.51-7.06
			l6.39-4.44c0,0,0.69-15.1-9.38-12.67l-11.76,0.42c0,0-23.16,3.83-26.74,6.72c0,0-4.36,4.24-5.63,5.88
			c-0.48,0.62-0.89,6.84,3.54,8.97c0,0-2.61,3.33-0.31,5.22l1.08,0.8c0,0-1.49,3.33-0.09,4.28c1.41,0.95,12.51,4.32,15.67,2.12
			s-0.5-4.73-2.17-4.95"/>
		<path class="st4" d="M345.36,339.9c0.44,0.02,0.87,0.07,1.3,0.14c0.84,0.1,2.05,0.26,3.56,0.37c0.75,0.05,1.6,0.1,2.46,0.11
			c0.86,0.02,1.83,0,2.84,0.07c1.09,0.03,2.15,0.37,3.06,0.97c1.02,0.68,1.59,1.86,1.49,3.07c-0.1,0.62-0.41,1.19-0.89,1.6
			c-0.44,0.37-0.96,0.66-1.51,0.84c-1.01,0.32-2.06,0.51-3.12,0.58c-1.78,0.13-3.57,0.1-5.34-0.1c-1.51-0.16-2.72-0.36-3.55-0.5
			c-0.44-0.05-0.87-0.14-1.29-0.27c0.44,0.01,0.88,0.04,1.31,0.11c0.85,0.1,2.06,0.25,3.56,0.37c1.75,0.15,3.52,0.15,5.27,0
			c1.03-0.08,2.04-0.28,3.03-0.58c0.5-0.17,0.97-0.42,1.37-0.76c0.4-0.34,0.67-0.81,0.75-1.33c0.07-1.07-0.43-2.09-1.32-2.69
			c-0.85-0.56-1.84-0.87-2.85-0.92c-0.97-0.09-1.93-0.06-2.82-0.1c-0.89-0.05-1.73-0.09-2.48-0.17c-1.51-0.14-2.72-0.34-3.55-0.5
			C346.2,340.15,345.77,340.05,345.36,339.9z"/>
		<path class="st4" d="M344.54,332.69c0.44,0.01,0.87,0.06,1.3,0.14c0.8,0.11,2.04,0.27,3.54,0.4s3.28,0.23,5.27,0.23
			c1.07-0.09,2.15,0.08,3.15,0.47c0.54,0.27,0.97,0.73,1.2,1.29c0.22,0.57,0.28,1.19,0.17,1.79c-0.26,1.16-0.99,2.17-2.02,2.77
			c-0.92,0.56-1.96,0.9-3.03,0.98c-1.77,0.07-3.55-0.01-5.31-0.25l-3.55-0.36c-0.44-0.03-0.87-0.09-1.3-0.19
			c0.44-0.03,0.87-0.03,1.31,0l3.56,0.23c1.74,0.19,3.5,0.24,5.25,0.15c1.01-0.09,1.99-0.42,2.86-0.95
			c0.93-0.54,1.59-1.44,1.82-2.49c0.25-1.04-0.22-2.11-1.14-2.64c-0.94-0.37-1.95-0.52-2.96-0.45c-2,0-3.79-0.15-5.29-0.32
			c-1.5-0.17-2.71-0.38-3.54-0.54C345.39,332.91,344.96,332.82,344.54,332.69z"/>
		<path class="st4" d="M349.7,333.57c-0.35-0.59-0.65-1.21-0.9-1.84c-0.37-0.57-0.69-1.18-0.96-1.81c0.08-0.08,0.8,0.58,1.33,1.6
			C349.55,332.12,349.74,332.84,349.7,333.57z"/>
		<path class="st3" d="M380.24,319.12l-9.44-1.25c0,0-26.67-5.44-26.94-4.74c-0.26,0.7-1.6,0.95-0.59,3.81
			c1.01,2.86,16.38,5.39,17.07,6.3c0.69,0.91,1.18,6.21,7.19,8.64s9.79,1.6,9.79,1.6"/>
		<path class="st4" d="M377.34,333.5l-0.2,0.06l-0.61,0.09c-0.8,0.07-1.6,0.07-2.4,0c-1.25-0.11-2.49-0.33-3.7-0.65
			c-1.61-0.41-3.17-1.02-4.64-1.8c-1.77-1.02-3.21-2.53-4.16-4.34c-0.5-1-0.92-2.04-1.28-3.11c-0.05-0.12-0.11-0.24-0.18-0.35
			c-0.08-0.08-0.18-0.14-0.28-0.18c-0.26-0.11-0.53-0.2-0.8-0.28c-0.56-0.18-1.13-0.33-1.73-0.48c-2.35-0.61-4.83-1.21-7.37-1.95
			c-1.27-0.38-2.56-0.8-3.83-1.3c-0.65-0.26-1.28-0.57-1.88-0.93c-0.31-0.19-0.6-0.42-0.86-0.68c-0.13-0.14-0.24-0.31-0.33-0.49
			c-0.09-0.18-0.11-0.35-0.18-0.52c-0.25-0.7-0.29-1.46-0.13-2.18c0.12-0.35,0.32-0.67,0.58-0.94c0.1-0.11,0.19-0.23,0.26-0.37
			c0,0,0,0,0.06-0.1c0.04-0.05,0.09-0.08,0.15-0.1c0.06-0.01,0.12-0.01,0.18,0h0.28c1.39,0.09,2.71,0.32,3.99,0.53
			c2.61,0.43,5.12,0.89,7.51,1.35c4.79,0.9,9.06,1.76,12.66,2.51c0.89,0.18,1.76,0.38,2.56,0.52l2.32,0.32l3.7,0.53l2.34,0.35
			l0.61,0.1l0.21,0.05c-0.07,0.01-0.14,0.01-0.22,0l-0.61-0.06l-2.36-0.28l-3.71-0.46l-2.32-0.3c-0.8-0.13-1.67-0.32-2.57-0.49
			l-12.67-2.4c-2.4-0.44-4.9-0.9-7.5-1.33c-1.3-0.2-2.64-0.43-3.99-0.52h-0.24h-0.08l0,0c0,0,0-0.06-0.04-0.1l0,0
			c0.31,0.11,0.08,0,0.15,0.07l0,0c-0.08,0.18-0.19,0.33-0.33,0.47c-0.22,0.23-0.39,0.5-0.5,0.8c-0.14,0.64-0.09,1.31,0.14,1.93
			c0.06,0.31,0.2,0.61,0.42,0.85c0.24,0.23,0.51,0.44,0.8,0.61c0.58,0.34,1.19,0.64,1.81,0.89c1.25,0.51,2.52,0.92,3.79,1.29
			c2.52,0.75,5,1.34,7.35,1.96c0.59,0.16,1.17,0.32,1.74,0.5c0.29,0.08,0.57,0.18,0.85,0.3c0.17,0.06,0.32,0.17,0.43,0.3
			c0.09,0.13,0.16,0.27,0.22,0.42c0.35,1.06,0.77,2.09,1.25,3.08c0.9,1.77,2.29,3.24,3.99,4.25c1.44,0.79,2.97,1.41,4.55,1.84
			c1.19,0.34,2.41,0.58,3.65,0.71c0.78,0.08,1.56,0.11,2.35,0.08c0.27,0,0.48,0,0.61,0L377.34,333.5z"/>
		<path class="st4" d="M354.89,347.51c0.33-0.04,0.66-0.02,0.98,0.05c0.89,0.13,1.75,0.38,2.57,0.76c0.57,0.26,1.1,0.58,1.6,0.96
			c0.63,0.43,1.05,1.1,1.18,1.85c0.04,0.87-0.42,1.69-1.18,2.11c-0.78,0.43-1.66,0.61-2.54,0.53c-2.94-0.16-5.85-0.59-8.71-1.29
			c-1.09-0.28-1.96-0.57-2.56-0.8c-0.31-0.1-0.62-0.23-0.9-0.39c0.32,0.04,0.64,0.12,0.95,0.23c0.61,0.18,1.48,0.42,2.57,0.65
			c2.85,0.61,5.75,1,8.67,1.16c0.8,0.08,1.6-0.08,2.31-0.46c0.64-0.34,1.03-1.01,1.01-1.73c-0.12-0.64-0.48-1.22-1.01-1.6
			c-0.47-0.38-0.98-0.7-1.53-0.96C357.22,348.08,356.07,347.72,354.89,347.51z"/>
		<path class="st5" d="M424.34,292.98c0,0,11.83-19.47,14.49-32.32c2.66-12.85,16.4-33.24,20.86-38.56s22.16-11.52,22.16-11.52
			l6.53-3.53l50.63-4.45c0,0,33.68,3.55,43.88,12.85c10.2,9.3,18.16,30.58,18.16,41.21s10.29,102.74,10.29,102.74l-124.76-0.16
			l2.8-45.41c0,0-15.07-10.19-19.06-19.06c-3.99-8.86-1.77-4.43-1.77-4.43s-14.14,30.07-19.02,33.61
			C444.66,327.51,388,344.9,388,344.9l-7.75-29.73L424.34,292.98z"/>
		<path class="st5" d="M571.63,219.17c-1.37,0.42-18.26,44.07-19.45,48.04c-1.19,3.97,0,28.98,0,28.98l5.59,10.33
			c0,0-1.6,7.54-0.4,11.12l-25.01,4.79c0,0-6.35-4.37-12.31,0l-29.55,2.5c0,0,8.67,0.1,6.09,13.39
			c-2.52,13.02-4.45,15.88-4.45,15.88l103.7-2.4c0,0,11.52-0.58,9.77-22.73s-6.7-83.27-6.7-83.27S591.35,213.06,571.63,219.17z"/>
		<path class="st2" d="M551.94,292.7c-0.11-0.17-0.19-0.35-0.25-0.54l-0.63-1.6c-0.27-0.68-0.6-1.52-0.92-2.52s-0.74-2.11-1.08-3.38
			c-0.34-1.27-0.8-2.65-1.11-4.16c-0.31-1.51-0.69-3.12-1.01-4.79c-0.65-3.72-1.06-7.48-1.22-11.25c-0.12-3.78-0.01-7.56,0.34-11.32
			c0.21-1.73,0.38-3.37,0.65-4.9c0.13-0.8,0.23-1.5,0.38-2.21c0.14-0.71,0.29-1.37,0.42-2.02c0.26-1.29,0.58-2.4,0.85-3.45
			c0.26-1.05,0.51-1.87,0.74-2.57s0.39-1.2,0.52-1.6c0.06-0.19,0.13-0.38,0.21-0.56c-0.02,0.2-0.06,0.39-0.13,0.58
			c-0.11,0.41-0.26,0.95-0.45,1.6c-0.18,0.65-0.45,1.6-0.67,2.59c-0.22,0.99-0.55,2.16-0.8,3.45c-0.13,0.65-0.26,1.32-0.39,2.02
			s-0.23,1.44-0.35,2.2c-0.26,1.53-0.42,3.19-0.61,4.89c-0.71,7.49-0.41,15.04,0.87,22.46c0.31,1.71,0.6,3.33,0.97,4.79
			c0.37,1.46,0.71,2.89,1.05,4.16c0.34,1.27,0.72,2.4,1.02,3.39s0.6,1.84,0.85,2.53l0.56,1.6
			C551.83,292.3,551.89,292.5,551.94,292.7z"/>
		<path class="st2" d="M588.02,340.04c0,0-0.1-0.1-0.27-0.3l-0.69-0.92c-0.3-0.41-0.66-0.89-1.11-1.44
			c-0.45-0.54-0.93-1.19-1.53-1.85c-0.6-0.66-1.23-1.41-1.96-2.15c-0.73-0.74-1.53-1.53-2.4-2.34c-1.89-1.72-3.88-3.33-5.97-4.79
			c-2.11-1.44-4.31-2.74-6.58-3.9c-1.06-0.51-2.06-1.01-3.03-1.41c-0.97-0.39-1.87-0.8-2.7-1.08c-0.83-0.28-1.6-0.55-2.28-0.8
			c-0.68-0.25-1.25-0.4-1.73-0.53l-1.1-0.33c-0.13-0.03-0.26-0.08-0.38-0.14c0.14,0.01,0.27,0.03,0.4,0.06l1.13,0.25
			c0.49,0.11,1.08,0.26,1.76,0.46c0.69,0.21,1.46,0.42,2.3,0.73c0.84,0.32,1.77,0.61,2.74,1.03s2,0.88,3.07,1.38
			c2.31,1.14,4.53,2.44,6.65,3.9c2.1,1.48,4.1,3.09,5.99,4.84c0.85,0.8,1.67,1.6,2.4,2.4s1.37,1.51,1.94,2.2
			c0.58,0.69,1.05,1.34,1.49,1.9c0.44,0.56,0.8,1.07,1.05,1.49s0.46,0.7,0.63,0.97C587.91,339.79,587.98,339.91,588.02,340.04z"/>
		<path class="st2" d="M596.75,334.23c-0.06,0.06-0.98-0.99-2.71-2.4c-1.01-0.82-2.08-1.57-3.19-2.24c-1.38-0.81-2.82-1.5-4.3-2.08
			c-1.5-0.55-3.03-0.99-4.6-1.29c-1.28-0.24-2.58-0.39-3.88-0.46c-2.23-0.09-3.61,0.08-3.62,0c0.32-0.09,0.64-0.14,0.97-0.16
			c0.38-0.06,0.76-0.09,1.14-0.1c0.45,0,0.95-0.06,1.52,0c1.32,0.02,2.64,0.15,3.95,0.38c1.59,0.29,3.16,0.72,4.67,1.29
			c1.51,0.58,2.97,1.3,4.36,2.14c1.12,0.69,2.19,1.47,3.19,2.33c0.44,0.36,0.8,0.73,1.11,1.04c0.28,0.25,0.55,0.52,0.8,0.8
			C596.38,333.71,596.58,333.96,596.75,334.23z"/>
		<path class="st2" d="M587.16,319.63c-0.05,0.07-1.27-0.9-3.51-2c-0.61-0.3-1.23-0.57-1.87-0.8c-0.67-0.29-1.42-0.5-2.2-0.75
			c-3.44-0.99-7.05-1.24-10.6-0.73c-0.8,0.14-1.6,0.25-2.28,0.44c-0.66,0.15-1.32,0.34-1.96,0.56c-2.4,0.8-3.71,1.6-3.75,1.5
			c0.29-0.22,0.6-0.41,0.93-0.57c0.37-0.22,0.75-0.41,1.14-0.58c0.52-0.24,1.05-0.45,1.6-0.64c0.64-0.24,1.3-0.44,1.97-0.61
			c0.76-0.21,1.54-0.37,2.32-0.5c3.6-0.56,7.27-0.31,10.76,0.74c0.76,0.22,1.5,0.49,2.23,0.8c0.64,0.25,1.27,0.54,1.88,0.87
			c0.5,0.26,1,0.54,1.47,0.85c0.37,0.21,0.72,0.45,1.05,0.72C586.64,319.14,586.91,319.37,587.16,319.63z"/>
		<path class="st2" d="M526.51,352.36c0.33-1.46,0.58-2.95,0.73-4.44c0.13-1.62,0.11-3.26-0.04-4.88c-0.19-1.99-0.54-3.95-1.04-5.89
			c-0.53-1.91-1.19-3.78-1.99-5.59c-0.68-1.48-1.49-2.91-2.4-4.26c-0.87-1.23-1.82-2.4-2.82-3.52c0.33,0.24,0.63,0.51,0.92,0.8
			c0.35,0.33,0.67,0.68,0.97,1.05l0.58,0.68c0.2,0.26,0.38,0.53,0.59,0.8c0.95,1.35,1.78,2.78,2.48,4.27
			c1.7,3.67,2.73,7.61,3.07,11.64c0.13,1.64,0.12,3.3-0.05,4.94c-0.04,0.35-0.08,0.68-0.11,1l-0.18,0.88
			c-0.08,0.47-0.19,0.94-0.34,1.39C526.8,351.61,526.67,351.99,526.51,352.36z"/>
		<path class="st2" d="M509.13,322.38c-0.03-0.07-0.04-0.15-0.05-0.23c0-0.18-0.06-0.4-0.11-0.68c-0.09-0.63-0.22-1.51-0.38-2.63
			c-0.33-2.28-0.75-5.59-1.25-9.7c-0.98-8.19-2.16-19.53-3.07-32.08c-0.92-12.55-1.4-23.96-1.6-32.19
			c-0.11-4.12-0.17-7.46-0.18-9.77c0-1.13,0-2.02,0-2.65v-0.69c-0.06-0.01-0.11-0.08-0.09-0.14c0.01-0.06,0.08-0.11,0.14-0.09
			c0.06,0.01,0.11,0.08,0.09,0.14c-0.01,0.05-0.05,0.08-0.09,0.09c0,0.18,0,0.41,0,0.69c0,0.63,0.05,1.52,0.09,2.65
			c0.07,2.33,0.18,5.66,0.3,9.76c0.3,8.24,0.8,19.62,1.73,32.18s2.04,23.88,2.95,32.07c0.46,4.07,0.85,7.38,1.11,9.7
			c0.13,1.13,0.22,2,0.3,2.64c0,0.28,0.06,0.5,0.07,0.69C509.11,322.23,509.12,322.3,509.13,322.38z"/>
		<path class="st2" d="M468.39,290.92c-0.21-0.39-0.39-0.8-0.54-1.22c-0.32-0.8-0.8-1.94-1.4-3.35c-1.2-2.82-2.99-6.66-5.13-10.83
			c-2.14-4.17-4.07-7.87-5.52-10.65c-0.69-1.37-1.25-2.48-1.6-3.26c-0.21-0.4-0.39-0.81-0.54-1.23c0.26,0.36,0.49,0.75,0.68,1.15
			l1.73,3.19c1.45,2.7,3.5,6.39,5.64,10.6c2.14,4.21,3.89,8.04,5.02,10.9c0.57,1.43,1.01,2.6,1.28,3.41
			C468.18,290.06,468.3,290.49,468.39,290.92z"/>
		<path class="st2" d="M462.02,276.17c-0.25-0.01-0.49-0.05-0.73-0.14c-0.46-0.11-1.11-0.3-1.92-0.57
			c-4.19-1.39-8.16-3.36-11.8-5.85c-0.69-0.48-1.25-0.89-1.6-1.18c-0.2-0.14-0.38-0.3-0.54-0.49c0.8,0.43,1.57,0.91,2.32,1.42
			c1.42,0.89,3.42,2.07,5.72,3.19c2.3,1.13,4.44,2.01,6.01,2.6C460.34,275.46,461.19,275.79,462.02,276.17z"/>
		<path class="st2" d="M451.31,303.44c-0.31-0.14-0.6-0.31-0.86-0.52c-0.53-0.36-1.31-0.87-2.29-1.46
			c-5.12-3.13-10.79-5.25-16.7-6.25c-1.13-0.2-2.05-0.33-2.69-0.41c-0.34-0.02-0.67-0.07-0.99-0.17c0.33-0.04,0.67-0.04,1.01,0
			c0.64,0,1.6,0.11,2.72,0.27c3,0.43,5.95,1.18,8.79,2.24c2.83,1.06,5.53,2.42,8.07,4.06c0.97,0.64,1.73,1.18,2.23,1.6
			C450.84,302.99,451.08,303.2,451.31,303.44z"/>
		<path class="st2" d="M537.65,202.68c-0.01,0.22-0.02,0.43-0.05,0.65c-0.06,0.46-0.13,1.08-0.22,1.85c-0.21,1.6-0.5,3.93-0.98,6.79
			c-0.55,3.35-1.3,6.67-2.24,9.94c-1.15,4.01-2.83,7.85-5.01,11.4c-1.21,1.91-2.6,3.7-4.16,5.33l-0.16,0.18l-0.15-0.2
			c-2-2.66-4.59-4.82-7.58-6.29c-1.28-0.63-2.61-1.12-3.99-1.47c-1.19-0.29-2.41-0.45-3.63-0.49c-1.75-0.06-3.51,0.18-5.18,0.73
			c-1.16,0.41-1.77,0.71-1.79,0.67c0.14-0.09,0.29-0.17,0.44-0.23c0.42-0.22,0.86-0.41,1.3-0.58c1.68-0.6,3.45-0.89,5.23-0.85
			c1.25,0.02,2.49,0.17,3.71,0.45c1.41,0.34,2.77,0.83,4.07,1.45c3.05,1.48,5.71,3.67,7.75,6.39h-0.31
			c1.53-1.62,2.91-3.39,4.11-5.27c2.16-3.53,3.84-7.32,5.01-11.29c0.95-3.25,1.72-6.54,2.32-9.87c0.53-2.84,0.85-5.17,1.11-6.76
			c0.12-0.8,0.22-1.38,0.3-1.84C537.55,203.14,537.59,202.91,537.65,202.68z"/>
		<polygon class="st5" points="538.33,203.19 530.64,192.99 522.28,193.25 495.11,207.6 		"/>
		<path class="st2" d="M502.51,231.78c-0.15,0.02-0.29,0.02-0.44,0c-0.42-0.04-0.84-0.11-1.25-0.21c-1.51-0.39-2.96-1.01-4.29-1.84
			c-0.9-0.56-1.88-0.97-2.92-1.21c-1.19-0.26-2.42-0.26-3.61,0c-2.76,0.63-5.03,2.6-6.03,5.25l-0.43,1.17v-1.25
			c0-0.31,0-0.64,0-0.97c0.1-6.29,0.1-11.98,0.36-16.12c0.12-2.06,0.28-3.73,0.46-4.87c0.07-0.58,0.16-1.01,0.22-1.31
			c0.02-0.15,0.06-0.3,0.11-0.45c0.04,0-0.07,0.63-0.18,1.78c-0.1,1.15-0.24,2.8-0.32,4.86c-0.18,4.12-0.14,9.82-0.24,16.12
			c0,0.34,0,0.67,0,0.98l-0.4-0.08c1.05-2.78,3.44-4.84,6.34-5.47c2.33-0.47,4.76,0.01,6.74,1.33c1.3,0.83,2.71,1.48,4.18,1.93
			C501.9,231.7,502.51,231.74,502.51,231.78z"/>
		<path class="st3" d="M530.64,143.6v61.26c0,3.51-1.23,6.9-3.49,9.58l0,0c-3.46,4.1-7.63,7.55-12.3,10.18l-12.35,6.96l-10.22-9.15
			c-3-2.69-4.79-6.48-4.94-10.5c-0.18-4.46-0.18-8.95-0.18-8.95s-17.31-1.25-18.94-18.31c-0.8-8.03-1.01-24.49-1.05-39.67
			c-0.04-17.31,13.22-31.74,30.47-33.17l0.49-0.04c17.52-0.42,32.07,13.44,32.5,30.96C530.64,143.03,530.64,143.31,530.64,143.6z"/>
		<path class="st4" d="M487.12,202.71c0,0,10.87,0,21.75-8.18c0,0-4.25,12.73-21.43,12.6L487.12,202.71z"/>
		<path class="st2" d="M472.93,156.45c0.1,1.32,1.23,2.33,2.56,2.27c1.29,0,2.34-1.05,2.33-2.35c0-0.02,0-0.03,0-0.05
			c-0.09-1.32-1.22-2.33-2.55-2.27c-1.29,0-2.34,1.05-2.34,2.34C472.93,156.41,472.93,156.43,472.93,156.45z"/>
		<path class="st2" d="M471.54,151.87c0.33,0.29,2.06-1.23,4.69-1.44c2.63-0.21,4.66,0.94,4.92,0.6c0.13-0.16-0.22-0.7-1.12-1.25
			c-1.21-0.7-2.6-1-3.99-0.87c-1.37,0.1-2.66,0.64-3.7,1.54C471.61,151.14,471.38,151.73,471.54,151.87z"/>
		<path class="st2" d="M497.91,155.39c0.1,1.32,1.23,2.33,2.56,2.27c1.3,0,2.34-1.06,2.34-2.36c0-0.01,0-0.03,0-0.04
			c-0.1-1.32-1.23-2.33-2.56-2.27c-1.3,0-2.34,1.06-2.34,2.36C497.91,155.36,497.91,155.37,497.91,155.39z"/>
		<path class="st2" d="M497.4,150.22c0.33,0.29,2.07-1.23,4.69-1.44s4.66,0.94,4.92,0.59c0.13-0.15-0.22-0.7-1.12-1.24
			c-1.21-0.7-2.6-1.01-3.99-0.88c-1.37,0.11-2.66,0.65-3.7,1.54C497.46,149.49,497.22,150.08,497.4,150.22z"/>
		<path class="st2" d="M489.47,170.51c0-0.15-1.65-0.3-4.33-0.42c-0.67,0-1.32-0.09-1.47-0.54c-0.11-0.69-0.02-1.4,0.28-2.03
			c0.5-1.68,1.02-3.43,1.6-5.27c2.15-7.5,3.65-13.64,3.35-13.72c-0.3-0.08-2.29,5.93-4.44,13.42c-0.52,1.85-1.01,3.61-1.48,5.29
			c-0.36,0.84-0.4,1.79-0.13,2.66c0.23,0.47,0.67,0.8,1.18,0.89c0.38,0.07,0.77,0.09,1.15,0.06
			C487.83,170.75,489.48,170.63,489.47,170.51z"/>
		<path class="st2" d="M497.36,171.66c-0.43,0-0.2,2.86-2.48,5.09s-5.33,2.16-5.32,2.56c0,0.18,0.73,0.5,2.01,0.42
			c1.67-0.12,3.25-0.82,4.45-1.98c1.16-1.11,1.84-2.64,1.89-4.25C497.92,172.3,497.55,171.62,497.36,171.66z"/>
		<path class="st2" d="M495.86,139.98c0.32,0.69,2.92,0.14,6.02,0.26c3.11,0.12,5.68,0.75,6.03,0.07c0.16-0.32-0.33-0.95-1.39-1.6
			c-2.86-1.49-6.25-1.58-9.18-0.25C496.25,139.05,495.73,139.65,495.86,139.98z"/>
		<path class="st2" d="M471.88,144.16c0.51,0.56,2.27-0.21,4.44-0.42s4.05,0.06,4.42-0.59c0.16-0.32-0.18-0.89-1.03-1.39
			c-1.13-0.6-2.42-0.84-3.7-0.68c-1.28,0.12-2.48,0.65-3.44,1.49C471.85,143.27,471.66,143.91,471.88,144.16z"/>
		<path class="st2" d="M510.54,126.4l0.1,0.06c2.91,1.92,4.97,4.88,5.75,8.28l0.07,0.34c1.07,4.79,1.37,9.78,2.48,14.59
			c1.12,4.81,0.91,8.48,5.73,9.58c2.58,0.57,5.25-0.52,6.7-2.72c0.36-0.7,0.51-1.5,0.42-2.28c-0.06-11.84,2.32-16.44,1.28-28.75
			c-0.26-3.34-2.13-6.35-5-8.08c-2.73-1.64-6.04-3.29-8.79-1.7s-6.01,7.26-8.05,9.72"/>
		<path class="st3" d="M525.52,151.8c0.29-0.14,11.45-4.44,12.05,7.28c0.6,11.72-11.29,9.89-11.32,9.58S525.52,151.8,525.52,151.8z"
			/>
		<path class="st4" d="M529.6,164.01c0.05-0.04,0.21,0.14,0.56,0.27c0.5,0.18,1.04,0.17,1.53-0.05c1.21-0.51,2.16-2.53,2.11-4.65
			c-0.02-1.01-0.27-1.99-0.72-2.89c-0.26-0.73-0.85-1.28-1.6-1.49c-0.49-0.11-0.99,0.16-1.17,0.62c-0.14,0.34-0.06,0.56-0.12,0.58
			c-0.06,0.02-0.26-0.18-0.19-0.67c0.05-0.29,0.2-0.56,0.42-0.76c0.31-0.25,0.71-0.38,1.12-0.35c0.99,0.15,1.83,0.79,2.22,1.71
			c0.55,0.98,0.84,2.07,0.87,3.19c0.05,2.4-1.05,4.63-2.72,5.21c-0.63,0.22-1.32,0.14-1.88-0.22
			C529.63,164.29,529.56,164.04,529.6,164.01z"/>
		<path class="st2" d="M519.8,117.48c2.49-4.91-5.94-10.97-11.86-12.31s-13.28,2.1-18.86,4.48c-3.52,1.5-6.99,3.47-10.81,3.63
			c-2.56,0.11-5.08-0.61-7.56-1.27s-5.06-1.25-7.6-0.85c-2.54,0.39-5.06,1.96-5.82,4.41c-0.77,2.45,0.88,5.59,3.44,5.72
			c-3.38-1.51-7.87,1.21-8.08,4.9c-0.22,3.7,3.9,6.93,7.44,5.85c-1.76-1.13-4.14,1.17-3.76,3.19s2.4,3.42,4.35,4.1
			c5.06,1.73,10.68,0.58,15.58-1.53c4.9-2.12,9.35-5.14,14.2-7.38c4.85-2.24,12.95-6.2,18.11-4.85c3.8,1,6.74,5.24,8.79,4.08
			c1.91-1.24,3.12-3.32,3.26-5.59c0.1-2.24-0.17-4.48-0.8-6.63"/>
		<path class="st6" d="M459.29,121.07c0.1-0.06,0.67,0.8,2.04,2.08c1.95,1.75,4.3,3,6.84,3.63c3.74,1.01,7.72,0.52,11.1-1.37
			c3.83-2.11,6.93-5.96,10.57-9.63s8.03-6.6,12.61-7.4c4.58-0.8,8.93,0.51,11.48,2.94c2.04,1.9,3.23,4.54,3.28,7.33
			c-0.01,0.74-0.12,1.48-0.33,2.2c-0.18,0.47-0.29,0.71-0.33,0.69c0.14-0.95,0.21-1.91,0.2-2.88c-0.21-2.6-1.42-5.01-3.37-6.74
			c-2.4-2.16-6.5-3.31-10.75-2.5c-4.25,0.81-8.44,3.55-11.98,7.19c-3.54,3.64-6.76,7.55-10.86,9.75c-6.21,3.27-13.83,2.1-18.78-2.88
			c-0.51-0.53-0.97-1.1-1.37-1.72C459.38,121.33,459.26,121.09,459.29,121.07z"/>
		<path class="st6" d="M528.45,151.05c-0.04,0.04-0.54-0.28-1.05-1.17c-0.69-1.28-1.01-2.73-0.93-4.18
			c-0.06-3.79,2.94-8.1,2.93-13.33c0.1-2.43-0.55-4.83-1.87-6.87c-1.14-1.61-2.77-2.8-4.66-3.39c-1.27-0.41-2.63-0.49-3.95-0.21
			c-0.93,0.23-1.41,0.49-1.46,0.4c-0.06-0.09,0.38-0.45,1.33-0.8c1.39-0.48,2.88-0.53,4.3-0.15c2.13,0.54,4,1.8,5.3,3.57
			c1.5,2.2,2.26,4.83,2.16,7.49c-0.08,2.59-0.64,5.15-1.65,7.55c-0.79,1.86-1.33,3.82-1.6,5.82
			C526.95,149.21,528.61,150.98,528.45,151.05z"/>
		<path class="st2" d="M601.09,259.3c0,0,0,0.16,0.05,0.47c0.05,0.31,0.06,0.8,0.1,1.37c0.09,1.22,0.21,3.02,0.38,5.35
			c0.32,4.7,0.8,11.56,1.37,20.25c0.57,8.7,1.25,19.23,2.05,31.27c0.19,3.01,0.39,6.11,0.61,9.3c0.12,1.6,0.18,3.19,0.26,4.87
			c0.04,0.83,0.04,1.66,0,2.48c0,0.84-0.05,1.68-0.14,2.52l-0.31,2.54c-0.18,0.84-0.37,1.69-0.54,2.53c-0.18,0.85-0.53,1.66-0.8,2.5
			s-0.67,1.64-1.1,2.4c-1.68,3.11-4.29,6.01-7.91,7.19h-0.05h-78.13h-24.76h-0.27l0.07-0.26c0.76-2.7,1.51-5.37,2.25-8.03
			c0.38-1.33,0.75-2.66,1.11-3.99c0.4-1.29,0.71-2.6,0.93-3.94c0.38-2.63,0.15-5.32-0.69-7.84c-0.39-1.24-1.02-2.38-1.87-3.37
			c-0.82-0.98-1.94-1.64-3.19-1.88l-1.64-0.26l1.6-0.14l29.51-2.48h-0.09c1.85-1.36,4.1-2.05,6.39-1.96
			c2.19,0.12,4.31,0.79,6.16,1.96h-0.14l25.02-4.71l-0.11,0.19c-0.28-0.96-0.43-1.95-0.43-2.95c-0.03-0.95,0-1.9,0.08-2.85
			c0.14-1.81,0.39-3.62,0.76-5.4v0.1c-2-3.75-3.84-7.19-5.54-10.33v-0.05c-0.39-9.21-0.54-16.47-0.46-21.42
			c0-2.48,0.12-4.38,0.25-5.65c0.04-0.48,0.11-0.96,0.22-1.44c0.07-0.32,0.11-0.48,0.11-0.48s0,0.17-0.08,0.49
			c-0.09,0.47-0.16,0.95-0.18,1.44c-0.11,1.28-0.18,3.19-0.19,5.65c0,4.95,0.14,12.21,0.57,21.41v-0.05
			c1.7,3.15,3.55,6.57,5.59,10.31l0,0v0.05c-0.36,1.78-0.61,3.59-0.76,5.4c-0.08,0.94-0.1,1.88-0.07,2.83
			c0.01,0.97,0.15,1.93,0.42,2.86l0.05,0.16h-0.16l-25.01,4.79h-0.06l-0.06-0.04c-1.8-1.13-3.85-1.78-5.97-1.88
			c-2.2-0.09-4.36,0.58-6.13,1.89h-0.05h-0.05l-29.5,2.51v-0.39c1.35,0.24,2.57,0.95,3.45,2c0.88,1.03,1.54,2.22,1.95,3.51
			c0.86,2.58,1.1,5.33,0.71,8.03c-0.21,1.35-0.52,2.69-0.93,3.99c-0.37,1.32-0.74,2.65-1.11,3.99c-0.75,2.66-1.49,5.32-2.24,7.99
			l-0.2-0.26h24.76l78.13,0.06l0,0c1.7-0.58,3.25-1.54,4.53-2.8c1.27-1.23,2.33-2.66,3.15-4.22c0.42-0.8,0.73-1.6,1.09-2.4
			s0.54-1.65,0.8-2.47s0.36-1.67,0.54-2.5c0.18-0.83,0.21-1.69,0.31-2.52c0.09-0.83,0.14-1.66,0.14-2.49c0.04-0.82,0.04-1.65,0-2.47
			c-0.07-1.64-0.13-3.25-0.25-4.85c-0.2-3.19-0.39-6.3-0.59-9.31c-0.8-12.04-1.43-22.58-1.98-31.28
			c-0.55-8.71-0.97-15.56-1.26-20.25c-0.14-2.33-0.25-4.14-0.32-5.36c0-0.6-0.06-1.05-0.07-1.37S601.09,259.3,601.09,259.3z"/>
		<path class="st2" d="M578.47,215.78c-0.46,0.32-0.93,0.62-1.42,0.89c-1.29,0.8-2.53,1.68-3.7,2.65
			c-3.83,3.23-7.08,7.11-9.58,11.45c-2.49,4.35-4.62,8.89-6.39,13.58l-1.66,4.25l-0.46,1.16c-0.04,0.14-0.11,0.27-0.18,0.39
			c0.02-0.15,0.05-0.29,0.1-0.42c0.1-0.31,0.24-0.7,0.39-1.18c0.35-1.02,0.86-2.49,1.54-4.3c1.69-4.74,3.8-9.33,6.3-13.7
			c2.52-4.38,5.83-8.27,9.74-11.47c1.2-0.95,2.47-1.81,3.8-2.56c0.46-0.28,0.85-0.45,1.1-0.58
			C578.19,215.87,578.33,215.82,578.47,215.78z"/>
		<path class="st3" d="M491.24,325.4h-9.78c0,0-22.07-7.99-26.6-7.19c-4.09,0.69-19.05,10.62-21.98,12.59
			c-0.33,0.22-0.58,0.53-0.71,0.9l0,0c-0.6,1.62,0.19,3.42,1.79,4.07l0.3,0.13l-0.13,0.45c-0.18,0.58-0.26,1.18-0.23,1.79
			c0.1,1.19,1.15,2.06,2.34,1.96c0.68-0.06,1.3-0.44,1.66-1.03l-0.56,1.01c-0.23,0.41-0.34,0.87-0.31,1.34l0.05,0.9
			c0.06,1.01,0.73,1.89,1.69,2.2l0,0c0.92,0.28,1.92,0.01,2.56-0.71c1.9-2.08,6-6.26,8.79-6.72c3-0.36,6.03-0.52,9.06-0.46
			c1.26,0.01,2.39,0.78,2.85,1.96l0,0c-1.65,0.12-13.11,6.1-17.17,8.24c-1.28,0.63-2.16,1.86-2.36,3.27c-0.15,1.27,0.49,2.6,3,2.01
			c5.39-1.26,15.09-5.72,15.09-5.72s5-1.43,8.24,0.85c4.56,3.19,6.65,4.4,10.57,3.1c2.38-0.8,4.66-1.88,6.8-3.19l7.71-0.8
			C493.91,346.36,501.21,328.2,491.24,325.4z"/>
		<path class="st4" d="M462.08,329.12c0,0.09-1.6-0.41-4.14-0.58c-6.82-0.46-13.45,2.37-17.83,7.61c-0.87,1.09-1.69,2.22-2.45,3.39
			c0.12-0.36,0.29-0.7,0.49-1.02c0.51-0.9,1.09-1.75,1.73-2.56c4.35-5.45,11.15-8.35,18.09-7.71c1.03,0.09,2.04,0.26,3.04,0.51
			C461.37,328.85,461.73,328.97,462.08,329.12z"/>
		<path class="st4" d="M459.76,323.76c-4.86-1.52-10.15-0.75-14.38,2.09c-2.98,1.92-5.69,4.22-8.07,6.84l-2.22,2.33
			c-0.25,0.29-0.54,0.56-0.85,0.8c0.22-0.33,0.46-0.65,0.73-0.94c0.49-0.59,1.21-1.43,2.12-2.44c2.34-2.71,5.07-5.07,8.09-7
			c3.07-1.92,6.64-2.88,10.26-2.78c1.09,0.06,2.16,0.25,3.19,0.59c0.27,0.09,0.54,0.19,0.8,0.31L459.76,323.76z"/>
	</g>
	<g id="freepik--Device--inject-7">
		<path class="st7" d="M319.62,359.89l-33.02-82.88c-2.26-5.54,0.4-11.87,5.95-14.13c1.3-0.53,2.68-0.8,4.09-0.8h102.86
			c4.64,0,8.77,2.96,10.26,7.35l28.36,83.59l33.13,0.16c2.69,0,4.87,3.98,4.87,6.64l0,0l-36.46-0.42L319.62,359.89z"/>
		<path class="st8" d="M367.17,314.4c0.01,3.69-2.98,6.69-6.68,6.7c-3.69,0.01-6.69-2.98-6.7-6.68c-0.01-3.69,2.98-6.69,6.68-6.7
			c0,0,0.01,0,0.01,0C364.17,307.72,367.17,310.71,367.17,314.4z"/>
	</g>
	<g id="freepik--Desk--inject-7">
		<path class="st2" d="M682.75,359.41c0,0.14-59.52,0.26-228.24,0.26s-285.34-0.12-285.34-0.26c0-0.14,116.59-0.26,285.34-0.26
			S682.75,359.26,682.75,359.41z"/>
	</g>
	<g id="freepik--Window--inject-2_4_">
		<rect x="67.4" y="60.31" class="st9" width="277.7" height="189.64"/>
		<circle class="st7" cx="76.48" cy="71.32" r="2.2"/>
		<circle class="st7" cx="83.92" cy="71.32" r="2.2"/>
		<circle class="st7" cx="91.38" cy="71.32" r="2.2"/>
		<rect x="286.79" y="81.17" class="st10" width="58.32" height="168.78"/>
		<rect x="291.16" y="85.81" class="st11" width="49.54" height="10.15"/>
		<rect x="291.16" y="99.91" class="st11" width="49.54" height="23.84"/>
		<rect x="291.16" y="161.9" class="st11" width="49.54" height="23.84"/>
		<rect x="291.16" y="126.41" class="st11" width="49.54" height="7.59"/>
		<rect x="291.16" y="147.01" class="st11" width="49.54" height="7.59"/>
		<rect x="291.16" y="190.06" class="st11" width="49.54" height="7.59"/>
		<rect x="291.16" y="136.7" class="st11" width="24.2" height="7.41"/>
		<rect x="316.5" y="136.7" class="st11" width="24.2" height="7.41"/>
		<path class="st7" d="M345.11,81.49c0,0.11-62.18,0.21-138.85,0.21S67.4,81.6,67.4,81.49s62.16-0.21,138.86-0.21
			S345.11,81.37,345.11,81.49z"/>
		<path class="st7" d="M345.11,249.95c0-1.37-0.07-74.21-0.17-189.64l0.17,0.17L67.42,60.52l0,0l0.21-0.21
			c0,67.67,0,131.98,0,189.64l-0.19-0.19l277.71,0.19l-277.71,0.19h-0.19v-0.19c0-57.66,0-121.93,0-189.64v-0.21h0.23l277.69,0.04
			h0.17v0.17C345.17,175.71,345.11,248.58,345.11,249.95z"/>
		<g>
			<g>
				<path class="st12" d="M265.34,228.31H89.12c-1.65,0-2.98-1.63-2.98-3.64V106.89c0-2.02,1.34-3.64,2.98-3.64h176.22
					c1.65,0,2.99,1.63,2.99,3.64v117.78C268.33,226.68,266.98,228.31,265.34,228.31z"/>
			</g>
			<g>
				<path class="st13" d="M86.12,197.61h182.21V225c0,1.83-1.48,3.31-3.31,3.31H89.4c-1.82,0-3.29-1.47-3.29-3.29V197.61z"/>
				<rect x="90.76" y="199.4" class="st14" width="172.37" height="6.66"/>
				<rect x="90.76" y="207.7" class="st14" width="111.45" height="1.9"/>
				<rect x="138.84" y="210.93" class="st2" width="111.45" height="1.9"/>
				<rect x="90.76" y="214.08" class="st15" width="53.62" height="1.9"/>
				<rect x="90.76" y="223.37" class="st15" width="83.09" height="1.9"/>
				<rect x="184.15" y="214.08" class="st15" width="23.22" height="1.9"/>
				<rect x="238.61" y="214.08" class="st15" width="24.53" height="1.9"/>
				<rect x="90.76" y="218.34" class="st14" width="145.66" height="1.9"/>
				<g>
					<path class="st16" d="M109.96,208.76c0,0.62-0.5,1.12-1.12,1.13c-0.62,0-1.12-0.5-1.13-1.12c0-0.62,0.5-1.12,1.12-1.13
						c0,0,0,0,0,0C109.46,207.65,109.96,208.15,109.96,208.76z"/>
					<path class="st14" d="M108.84,210.08c-0.73,0-1.32-0.59-1.32-1.32c0-0.73,0.59-1.32,1.32-1.32c0.73,0,1.32,0.59,1.32,1.32l0,0
						C110.16,209.49,109.57,210.08,108.84,210.08C108.84,210.08,108.84,210.08,108.84,210.08z M108.84,207.84
						c-0.51,0-0.93,0.41-0.93,0.93c0,0.51,0.41,0.93,0.93,0.93c0.51,0,0.93-0.41,0.93-0.93c0,0,0,0,0,0
						C109.76,208.25,109.35,207.84,108.84,207.84L108.84,207.84z"/>
				</g>
				<g>
					<path class="st16" d="M226.73,211.88c0,0.62-0.5,1.12-1.12,1.13c-0.62,0-1.12-0.5-1.13-1.12c0-0.62,0.5-1.12,1.12-1.13
						c0,0,0,0,0,0C226.23,210.76,226.73,211.26,226.73,211.88z"/>
					<path class="st2" d="M225.61,213.2c-0.73,0-1.32-0.59-1.32-1.32c0-0.73,0.59-1.32,1.32-1.32c0.73,0,1.32,0.59,1.32,1.32v0
						C226.93,212.61,226.34,213.2,225.61,213.2z M225.61,210.96c-0.51,0-0.93,0.41-0.93,0.93c0,0.51,0.41,0.93,0.93,0.93
						s0.93-0.41,0.93-0.93c0,0,0,0,0,0C226.54,211.37,226.12,210.96,225.61,210.96C225.61,210.96,225.61,210.96,225.61,210.96z"/>
				</g>
				<g>
					<path class="st16" d="M148.82,208.65c0,0.62-0.5,1.12-1.12,1.13c-0.62,0-1.12-0.5-1.13-1.12c0-0.62,0.5-1.12,1.12-1.13
						c0,0,0.01,0,0.01,0C148.32,207.53,148.82,208.03,148.82,208.65z"/>
					<path class="st14" d="M147.7,209.97c-0.73,0-1.32-0.59-1.32-1.31c0-0.73,0.59-1.32,1.32-1.32c0.73,0,1.32,0.59,1.32,1.31
						c0,0,0,0,0,0C149.01,209.38,148.42,209.96,147.7,209.97z M147.7,207.73c-0.51,0-0.93,0.41-0.93,0.92s0.41,0.93,0.92,0.93
						c0.51,0,0.93-0.41,0.93-0.92c0,0,0-0.01,0-0.01C148.62,208.14,148.21,207.73,147.7,207.73z"/>
				</g>
				<g>
					<path class="st16" d="M109.96,219.3c0,0.62-0.5,1.12-1.12,1.12s-1.12-0.5-1.12-1.12c0-0.62,0.5-1.12,1.12-1.12l0,0
						C109.45,218.17,109.96,218.67,109.96,219.3C109.96,219.29,109.96,219.29,109.96,219.3z"/>
					<path class="st14" d="M108.84,220.61c-0.73,0-1.32-0.59-1.32-1.32s0.59-1.32,1.32-1.32s1.32,0.59,1.32,1.32c0,0,0,0,0,0
						C110.16,220.02,109.57,220.61,108.84,220.61C108.84,220.61,108.84,220.61,108.84,220.61z M108.84,218.37
						c-0.51,0-0.93,0.41-0.93,0.93c0,0.51,0.41,0.93,0.93,0.93c0.51,0,0.93-0.41,0.93-0.93v0
						C109.76,218.78,109.35,218.37,108.84,218.37z"/>
				</g>
				<g>
					<path class="st16" d="M148.82,219.3c0,0.62-0.5,1.12-1.12,1.12s-1.12-0.5-1.12-1.12c0-0.62,0.5-1.12,1.12-1.12c0,0,0,0,0,0
						C148.32,218.18,148.82,218.68,148.82,219.3z"/>
					<path class="st14" d="M147.7,220.61c-0.73,0-1.32-0.59-1.32-1.31s0.59-1.32,1.32-1.32s1.32,0.59,1.32,1.31c0,0,0,0.01,0,0.01
						C149.01,220.02,148.42,220.61,147.7,220.61z M147.7,218.37c-0.51,0-0.93,0.41-0.93,0.92c0,0.51,0.41,0.93,0.92,0.93
						c0.51,0,0.93-0.41,0.93-0.92c0,0,0,0,0,0C148.62,218.79,148.21,218.37,147.7,218.37z"/>
				</g>
				<g>
					<path class="st16" d="M168.32,211.88c0,0.62-0.5,1.12-1.12,1.12c-0.62,0-1.12-0.5-1.12-1.12c0-0.62,0.5-1.12,1.12-1.12l0,0
						C167.82,210.76,168.32,211.26,168.32,211.88z"/>
					<path class="st2" d="M167.2,213.2c-0.73,0-1.32-0.59-1.32-1.32c0-0.73,0.59-1.32,1.32-1.32c0.73,0,1.32,0.59,1.32,1.32
						c0,0,0,0,0,0C168.52,212.61,167.93,213.2,167.2,213.2C167.2,213.2,167.2,213.2,167.2,213.2z M167.2,210.96
						c-0.51,0-0.93,0.41-0.93,0.93c0,0.51,0.41,0.93,0.93,0.93c0.51,0,0.93-0.41,0.93-0.93v0
						C168.12,211.37,167.71,210.96,167.2,210.96z"/>
				</g>
				<g>
					<path class="st16" d="M119.17,215.03c0,0.62-0.5,1.12-1.12,1.12c-0.62,0-1.12-0.5-1.12-1.12c0-0.62,0.5-1.12,1.12-1.12l0,0
						C118.67,213.91,119.17,214.41,119.17,215.03z"/>
					<path class="st2" d="M118.05,216.35c-0.73,0-1.32-0.59-1.32-1.32c0-0.73,0.59-1.32,1.32-1.32c0.73,0,1.32,0.59,1.32,1.32v0
						C119.37,215.76,118.78,216.35,118.05,216.35z M118.05,214.11c-0.51,0-0.93,0.41-0.93,0.93c0,0.51,0.41,0.93,0.93,0.93
						c0.51,0,0.93-0.41,0.93-0.93v0C118.97,214.52,118.56,214.11,118.05,214.11z"/>
				</g>
				<g>
					<path class="st16" d="M134.58,224.32c0,0.62-0.5,1.12-1.12,1.13c-0.62,0-1.12-0.5-1.13-1.12c0-0.62,0.5-1.12,1.12-1.13
						c0,0,0,0,0,0C134.08,223.2,134.58,223.7,134.58,224.32z"/>
					<path class="st2" d="M133.47,225.64c-0.73,0-1.32-0.59-1.32-1.32c0-0.73,0.59-1.32,1.32-1.32c0.73,0,1.32,0.59,1.32,1.32v0
						C134.79,225.04,134.21,225.63,133.47,225.64C133.48,225.64,133.47,225.64,133.47,225.64z M133.47,223.4
						c-0.51,0-0.93,0.41-0.93,0.93c0,0.51,0.41,0.93,0.93,0.93s0.93-0.41,0.93-0.93c0,0,0,0,0,0
						C134.4,223.81,133.98,223.4,133.47,223.4C133.47,223.4,133.47,223.4,133.47,223.4L133.47,223.4z"/>
				</g>
			</g>
			<path class="st1" d="M265.34,228.31h0.1c0.1,0,0.2-0.01,0.29-0.03c0.39-0.06,0.76-0.22,1.07-0.45c0.53-0.38,0.93-0.91,1.17-1.51
				c0.16-0.38,0.26-0.79,0.3-1.2c0.04-0.44,0-0.92,0-1.43c0-4.06,0-10.04-0.03-17.74c0-15.41,0-37.7-0.04-65.24
				c0-6.88,0-14.09,0-21.62V107.6c0.02-0.48,0-0.97-0.07-1.45c-0.08-0.47-0.26-0.93-0.5-1.34c-0.24-0.41-0.57-0.77-0.97-1.03
				c-0.4-0.26-0.87-0.41-1.35-0.41h-6h-51.71H89.13c-0.63,0.01-1.23,0.25-1.69,0.68c-0.48,0.43-0.83,0.98-1.01,1.59
				c-0.17,0.62-0.23,1.26-0.19,1.91v55.48c0,19.82,0,38.94,0,57.15v3.4c-0.02,0.56,0,1.12,0.05,1.67c0.07,0.54,0.25,1.05,0.53,1.51
				c0.28,0.46,0.68,0.85,1.15,1.11c0.23,0.13,0.49,0.21,0.75,0.25c0.27,0.03,0.54,0.05,0.82,0.04h41.57h45.06l65.23,0.04l17.74,0.03
				l4.61,0.08h1.57h-1.57l-4.61-0.08l-17.74,0.03l-65.2,0.15h-45.06H89.56c-0.28,0.01-0.57,0-0.85-0.04
				c-0.29-0.05-0.57-0.14-0.83-0.28c-0.51-0.28-0.94-0.69-1.24-1.19c-0.31-0.5-0.5-1.05-0.57-1.63c-0.05-0.57-0.06-1.14-0.05-1.71
				v-3.4c0-18.21,0-37.31,0-57.15c0-9.91,0-20,0-30.25v-25.18c-0.04-0.67,0.02-1.34,0.2-1.99c0.19-0.65,0.56-1.25,1.06-1.71
				c0.51-0.47,1.18-0.74,1.87-0.75h118.49h51.71h6.02c0.52,0.01,1.03,0.17,1.46,0.45c0.42,0.29,0.78,0.67,1.03,1.11
				c0.25,0.44,0.42,0.91,0.5,1.41c0.07,0.49,0.09,0.99,0.07,1.48v11.5c0,7.52,0,14.72,0,21.62c0,27.54-0.03,49.84-0.04,65.24
				c0,7.7,0,13.68-0.03,17.74c0,0.5,0,0.98-0.03,1.43c-0.04,0.42-0.15,0.83-0.31,1.21c-0.24,0.61-0.66,1.13-1.19,1.51
				c-0.32,0.23-0.69,0.38-1.08,0.43C265.61,228.29,265.47,228.3,265.34,228.31z"/>
			<g>
				<rect x="142.8" y="116.38" class="st9" width="69.15" height="69.37"/>
				<path class="st15" d="M212.18,186.06h-69.93v-69.93h69.93V186.06z M142.8,185.51h68.83v-68.83H142.8L142.8,185.51z"/>
				<path class="st15" d="M208.94,182.83h-63.61v-63.61h63.61V182.83z M145.88,182.28h62.51v-62.51h-62.51V182.28z"/>
				<polygon class="st15" points="146.76,181.96 146.32,181.63 165.03,156.74 178,163.94 194.38,139.08 194.84,139.38 
					178.17,164.67 165.18,157.46 				"/>
				<path class="st15" d="M175,146.2c-4.63,0-8.38-3.75-8.38-8.38s3.75-8.38,8.38-8.38c4.63,0,8.38,3.75,8.38,8.38c0,0,0,0,0,0.01
					C183.38,142.45,179.63,146.2,175,146.2z M175,129.99c-4.33,0-7.84,3.51-7.84,7.84c0,4.33,3.51,7.84,7.84,7.84
					c4.33,0,7.84-3.51,7.84-7.84C182.83,133.5,179.33,129.99,175,129.99z"/>
				<rect x="164.59" y="156.58" class="st15" width="1.03" height="1.03"/>
				<rect x="177.5" y="163.73" class="st15" width="1.03" height="1.03"/>
				<rect x="194.1" y="138.86" class="st15" width="1.03" height="1.03"/>
				<rect x="174.49" y="145.41" class="st15" width="1.03" height="1.03"/>
				<rect x="174.49" y="129.14" class="st15" width="1.03" height="1.03"/>
				<rect x="182.62" y="137.31" class="st15" width="1.03" height="1.03"/>
				<rect x="166.35" y="137.31" class="st15" width="1.03" height="1.03"/>
				<rect x="146.02" y="181.28" class="st15" width="1.03" height="1.03"/>
				<path class="st15" d="M194.61,150.5c-0.08,0-0.14-4.75-0.14-10.6s0.07-10.61,0.14-10.61s0.14,4.75,0.14,10.61
					S194.69,150.5,194.61,150.5z"/>
				<path class="st15" d="M195,129.29c0,0.21-0.17,0.39-0.38,0.39c-0.21,0-0.39-0.17-0.39-0.38c0,0,0,0,0,0
					c0-0.21,0.17-0.38,0.39-0.38C194.83,128.91,195,129.08,195,129.29z"/>
				<circle class="st15" cx="194.61" cy="150.73" r="0.38"/>
			</g>
		</g>
	</g>
</g>
</svg>
